<svg xmlns="http://www.w3.org/2000/svg" xmlns:xlink="http://www.w3.org/1999/xlink" id="Capa_1" x="0" y="0" version="1.1" viewBox="0 0 69.7 10.5" xml:space="preserve" style="enable-background:new 0 0 69.7 10.5"><style type="text/css">.st0{fill:#1de1c4}.st2{clip-path:url(#SVGID_2_)}</style><g><g><defs><rect id="SVGID_1_" width="17.9" height="16.5" x="8.1" y="-22.5"/></defs><clipPath id="SVGID_2_"><use xlink:href="#SVGID_1_" style="overflow:visible"/></clipPath><g class="st2"><path d="M12.5,9.4C12.8,9.4,13,9.2,13,9c0-0.3-0.2-0.5-0.5-0.5c-0.3,0-0.5,0.2-0.4,0.5C12.1,9.3,12.3,9.4,12.5,9.4z" class="st0"/><path d="M13.3,8c0.3,0,0.5-0.2,0.5-0.5c0-0.3-0.2-0.5-0.5-0.5c-0.3,0-0.5,0.2-0.5,0.5C12.8,7.9,13,8,13.3,8z" class="st0"/><path d="M22.4,8c0.3,0,0.5-0.2,0.5-0.4c0-0.3-0.2-0.5-0.4-0.5c-0.3,0-0.5,0.2-0.5,0.4C22,7.8,22.1,8,22.4,8z" class="st0"/><path d="M19.1,3.3c0-0.3-0.2-0.4-0.4-0.4c-0.3,0-0.5,0.2-0.5,0.4c0,0.3,0.2,0.5,0.5,0.5C18.9,3.8,19,3.6,19.1,3.3z" class="st0"/><path d="M21.7,2.9c-0.3,0-0.5,0.2-0.5,0.4c0,0.3,0.2,0.5,0.4,0.5c0.3,0,0.5-0.2,0.5-0.5C22.1,3.1,21.9,2.9,21.7,2.9z" class="st0"/><path d="M12.1,3.3c0,0.3,0.2,0.5,0.5,0.5c0.3,0,0.5-0.2,0.4-0.5c0-0.3-0.2-0.4-0.5-0.4C12.2,2.9,12.1,3.1,12.1,3.3z" class="st0"/><path d="M20.9,4.3c-0.3,0-0.5,0.2-0.5,0.5c0,0.3,0.2,0.4,0.5,0.4c0.3,0,0.4-0.2,0.4-0.5C21.4,4.4,21.2,4.3,20.9,4.3z" class="st0"/><path d="M12.2,10.4c0-0.3-0.2-0.5-0.5-0.5c-0.3,0-0.5,0.2-0.5,0.5c0,0.3,0.2,0.5,0.5,0.5 C12.1,10.9,12.2,10.7,12.2,10.4z" class="st0"/><path d="M21.4,10.4c0-0.3-0.2-0.4-0.5-0.4c-0.3,0-0.5,0.2-0.5,0.5c0,0.3,0.2,0.5,0.5,0.5 C21.2,10.9,21.3,10.7,21.4,10.4z" class="st0"/><path d="M11.8,5.2c0.3,0,0.4-0.1,0.4-0.4c0-0.3-0.2-0.5-0.4-0.5c-0.3,0-0.5,0.2-0.5,0.5C11.3,5,11.5,5.2,11.8,5.2z" class="st0"/><path d="M21.7,5.7c-0.3,0-0.5,0.1-0.5,0.4c0,0.3,0.2,0.4,0.5,0.4c0.3,0,0.4-0.2,0.5-0.4C22.1,5.9,22,5.7,21.7,5.7z" class="st0"/><path d="M12.5,6.6c0.3,0,0.5-0.2,0.5-0.5c0-0.3-0.2-0.4-0.4-0.4c-0.3,0-0.5,0.1-0.5,0.4C12.1,6.4,12.3,6.6,12.5,6.6z" class="st0"/><path d="M11,9.4c0.3,0,0.5-0.2,0.5-0.5c0-0.3-0.2-0.5-0.4-0.5c-0.3,0-0.5,0.2-0.5,0.5C10.5,9.2,10.7,9.4,11,9.4z" class="st0"/><path d="M20.1,9.4c0.3,0,0.5-0.2,0.5-0.4c0-0.3-0.2-0.5-0.4-0.5c-0.3,0-0.5,0.2-0.5,0.4C19.7,9.2,19.8,9.4,20.1,9.4z" class="st0"/><path d="M21.2,9c0,0.3,0.2,0.4,0.5,0.4c0.3,0,0.5-0.2,0.5-0.4c0-0.3-0.2-0.5-0.5-0.5C21.4,8.5,21.2,8.7,21.2,9z" class="st0"/><path d="M11.7,8c0.4,0,0.6-0.2,0.6-0.5c0-0.3-0.2-0.5-0.4-0.5c-0.3,0-0.5,0.2-0.5,0.4C11.4,7.7,11.6,7.9,11.7,8z" class="st0"/><path d="M20.8,8c0.4,0,0.6-0.2,0.6-0.5c0-0.3-0.2-0.5-0.4-0.5c-0.3,0-0.5,0.2-0.5,0.4C20.5,7.7,20.7,7.9,20.8,8z" class="st0"/><path d="M13.3,5.2c0.3,0,0.5-0.2,0.5-0.4c0-0.3-0.2-0.4-0.5-0.5c-0.3,0-0.5,0.2-0.5,0.4C12.8,5,13,5.2,13.3,5.2z" class="st0"/><path d="M19,10.4c0,0.3,0.2,0.5,0.5,0.5c0.3,0,0.4-0.2,0.4-0.4c0-0.3-0.2-0.5-0.4-0.5C19.1,9.9,19,10.1,19,10.4z" class="st0"/><path d="M14.4,4.7c0,0.3,0.1,0.5,0.4,0.5c0.3,0,0.5-0.1,0.5-0.4c0-0.3-0.2-0.5-0.4-0.5C14.6,4.3,14.4,4.5,14.4,4.7z" class="st0"/><path d="M16.3,5.2c0.3,0,0.5-0.2,0.5-0.5c0-0.3-0.2-0.5-0.5-0.4c-0.3,0-0.5,0.2-0.5,0.5C15.9,5.1,16.1,5.2,16.3,5.2z" class="st0"/><path d="M10.2,9.9c-0.3,0-0.4,0.2-0.4,0.5c0,0.3,0.2,0.4,0.4,0.4c0.3,0,0.4-0.2,0.4-0.5C10.7,10.1,10.5,10,10.2,9.9z" class="st0"/><path d="M22.4,5.2c0.3,0,0.5-0.2,0.5-0.4c0-0.3-0.2-0.4-0.5-0.5c-0.3,0-0.5,0.2-0.5,0.5C22,5,22.1,5.2,22.4,5.2z" class="st0"/><path d="M23.5,4.8c0,0.3,0.2,0.4,0.5,0.4c0.3,0,0.5-0.2,0.5-0.4c0-0.3-0.2-0.5-0.5-0.5C23.7,4.3,23.5,4.5,23.5,4.8z" class="st0"/><path d="M14,2.9c-0.2,0-0.4,0.2-0.4,0.5c0,0.3,0.2,0.5,0.5,0.4c0.3,0,0.5-0.2,0.4-0.5C14.5,3.1,14.3,2.9,14,2.9z" class="st0"/><path d="M16.6,3.3c0,0.3,0.2,0.4,0.5,0.4c0.3,0,0.4-0.2,0.4-0.5c0-0.3-0.2-0.4-0.5-0.4C16.8,2.9,16.7,3.1,16.6,3.3z" class="st0"/><path d="M20.1,2.9c-0.3,0-0.5,0.2-0.5,0.5c0,0.3,0.2,0.5,0.5,0.5c0.3,0,0.5-0.2,0.5-0.5C20.6,3,20.4,2.9,20.1,2.9z" class="st0"/><path d="M23.2,2.9c-0.3,0-0.4,0.1-0.4,0.4c0,0.3,0.2,0.5,0.4,0.5c0.3,0,0.5-0.2,0.5-0.4C23.6,3.1,23.5,2.9,23.2,2.9z" class="st0"/><path d="M13.3,2.4c0.3,0,0.5-0.2,0.5-0.5c0-0.3-0.2-0.4-0.5-0.4c-0.3,0-0.4,0.2-0.4,0.4C12.8,2.2,13,2.4,13.3,2.4z" class="st0"/><path d="M14.4,1.9c0,0.3,0.2,0.4,0.5,0.4c0.3,0,0.4-0.2,0.4-0.4c0-0.3-0.2-0.5-0.5-0.5C14.5,1.5,14.4,1.7,14.4,1.9z" class="st0"/><path d="M22.5,2.4c0.3,0,0.4-0.2,0.4-0.5c0-0.3-0.2-0.4-0.5-0.4c-0.3,0-0.4,0.2-0.4,0.4C22,2.2,22.1,2.4,22.5,2.4z" class="st0"/><path d="M11.1,0.9c0.3,0,0.4-0.2,0.4-0.5C11.4,0.2,11.3,0,11,0c-0.3,0-0.5,0.2-0.5,0.4C10.6,0.8,10.7,0.9,11.1,0.9z" class="st0"/><path d="M12.5,0c-0.3,0-0.5,0.2-0.5,0.4c0,0.3,0.2,0.4,0.4,0.4c0.3,0,0.5-0.1,0.5-0.4C13,0.2,12.8,0.1,12.5,0z" class="st0"/><path d="M16.3,2.4c0.3,0,0.5-0.2,0.5-0.4c0-0.3-0.2-0.4-0.5-0.4c-0.3,0-0.4,0.1-0.4,0.4C15.9,2.2,16.1,2.4,16.3,2.4z" class="st0"/><path d="M13.6,0.5c0,0.3,0.2,0.5,0.5,0.5c0.3,0,0.4-0.2,0.4-0.4C14.5,0.2,14.3,0,14,0C13.7,0,13.6,0.2,13.6,0.5z" class="st0"/><path d="M18.5,0.9c0.4,0,0.6-0.2,0.6-0.5c0-0.3-0.2-0.4-0.4-0.4c-0.3,0-0.5,0.2-0.5,0.5C18.2,0.7,18.4,0.8,18.5,0.9z" class="st0"/><path d="M20.2,0.9c0.3,0,0.4-0.2,0.4-0.5c0-0.3-0.2-0.4-0.5-0.4c-0.3,0-0.5,0.2-0.5,0.5C19.7,0.8,19.9,0.9,20.2,0.9z" class="st0"/><path d="M21.2,0.5c0,0.3,0.2,0.5,0.5,0.5c0.3,0,0.4-0.2,0.4-0.4c0-0.3-0.2-0.4-0.5-0.5C21.4,0,21.2,0.2,21.2,0.5z" class="st0"/><path d="M23.2,6.6c0.3,0,0.5-0.2,0.5-0.5c0-0.3-0.2-0.4-0.5-0.4c-0.3,0-0.4,0.2-0.4,0.4C22.7,6.4,22.9,6.6,23.2,6.6z" class="st0"/><path d="M14,6.6c0.3,0,0.5-0.2,0.5-0.4c0-0.3-0.2-0.4-0.5-0.4c-0.3,0-0.4,0.1-0.4,0.4C13.6,6.4,13.8,6.6,14,6.6z" class="st0"/><path d="M17.4,4.8c0,0.3,0.2,0.4,0.4,0.4c0.3,0,0.4-0.1,0.4-0.4c0-0.3-0.1-0.5-0.4-0.5C17.6,4.3,17.4,4.4,17.4,4.8z" class="st0"/><path d="M19,4.8c0,0.2,0.1,0.4,0.4,0.4c0.3,0,0.4-0.2,0.5-0.4c0-0.3-0.2-0.4-0.4-0.5C19.2,4.3,19,4.4,19,4.8z" class="st0"/><path d="M15.1,3.3c0,0.3,0.2,0.5,0.5,0.5c0.3,0,0.4-0.2,0.4-0.5c0-0.3-0.2-0.4-0.4-0.4C15.3,2.9,15.1,3.1,15.1,3.3z" class="st0"/><path d="M20.9,1.5c-0.3,0-0.5,0.2-0.5,0.5c0,0.3,0.2,0.4,0.5,0.4c0.3,0,0.4-0.2,0.4-0.4C21.4,1.6,21.2,1.5,20.9,1.5z" class="st0"/><path d="M17.5,0.5c0-0.3-0.2-0.4-0.5-0.4c-0.3,0-0.4,0.2-0.4,0.4c0,0.3,0.1,0.4,0.4,0.4C17.4,0.9,17.5,0.8,17.5,0.5z" class="st0"/><path d="M17.4,1.9c0,0.3,0.2,0.5,0.5,0.4c0.3,0,0.4-0.2,0.4-0.4c0-0.3-0.2-0.4-0.5-0.4C17.6,1.5,17.4,1.7,17.4,1.9z" class="st0"/><path d="M19,1.9c0,0.3,0.2,0.4,0.4,0.4c0.3,0,0.4-0.2,0.4-0.5c0-0.3-0.2-0.4-0.4-0.4C19.1,1.5,19,1.7,19,1.9z" class="st0"/><path d="M15.6,0c-0.3,0-0.4,0.2-0.4,0.5c0,0.3,0.2,0.4,0.5,0.4c0.3,0,0.4-0.2,0.4-0.4C16,0.2,15.8,0,15.6,0z" class="st0"/></g></g></g><path d="M1.8,2.3C1.7,2.2,1.6,2,1.6,1.9c0-0.1,0-0.3,0.1-0.4C1.9,1.4,2,1.4,2.2,1.4c0.1,0,0.3,0.1,0.4,0.2	c0.1,0.1,0.2,0.2,0.2,0.4c0,0.2-0.1,0.3-0.2,0.4C2.4,2.4,2.3,2.4,2.2,2.4C2,2.4,1.9,2.4,1.8,2.3z" class="st0"/><path d="M1.8,3.3C1.7,3.2,1.6,3.1,1.6,3c0-0.1,0-0.3,0.1-0.4C1.9,2.5,2,2.4,2.2,2.4c0.1,0,0.3,0.1,0.4,0.2	C2.6,2.7,2.7,2.8,2.7,3c0,0.2-0.1,0.3-0.2,0.4C2.4,3.4,2.3,3.5,2.2,3.5C2,3.5,1.9,3.4,1.8,3.3z" class="st0"/><path d="M1.8,4.4C1.7,4.3,1.6,4.2,1.6,4c0-0.1,0-0.3,0.1-0.4C1.9,3.5,2,3.5,2.2,3.5c0.1,0,0.3,0.1,0.4,0.2	C2.6,3.8,2.7,3.9,2.7,4c0,0.2-0.1,0.3-0.2,0.4C2.4,4.5,2.3,4.5,2.2,4.5C2,4.5,1.9,4.5,1.8,4.4z" class="st0"/><path d="M1.8,5.5C1.7,5.4,1.6,5.2,1.6,5.1c0-0.1,0-0.3,0.1-0.4C1.9,4.6,2,4.5,2.2,4.5c0.1,0,0.3,0.1,0.4,0.2	c0.1,0.1,0.2,0.2,0.2,0.4c0,0.2-0.1,0.3-0.2,0.4C2.4,5.6,2.3,5.6,2.2,5.6C2,5.6,1.9,5.6,1.8,5.5z" class="st0"/><path d="M1.8,6.5C1.7,6.4,1.6,6.3,1.6,6.1c0-0.1,0-0.3,0.1-0.4C1.9,5.7,2,5.6,2.2,5.6c0.1,0,0.3,0.1,0.4,0.2	C2.6,5.9,2.7,6,2.7,6.1c0,0.2-0.1,0.3-0.2,0.4C2.4,6.6,2.3,6.7,2.2,6.7C2,6.7,1.9,6.6,1.8,6.5z" class="st0"/><path d="M1.8,7.6C1.7,7.5,1.6,7.4,1.6,7.2c0-0.1,0-0.3,0.1-0.4C1.9,6.7,2,6.7,2.2,6.7c0.1,0,0.3,0.1,0.4,0.2	c0.1,0.1,0.2,0.2,0.2,0.4c0,0.2-0.1,0.3-0.2,0.4C2.4,7.7,2.3,7.7,2.2,7.7C2,7.7,1.9,7.7,1.8,7.6z" class="st0"/><path d="M1.8,8.7C1.7,8.6,1.6,8.4,1.6,8.3c0-0.1,0-0.3,0.1-0.4C1.9,7.8,2,7.7,2.2,7.7c0.1,0,0.3,0.1,0.4,0.2	C2.6,8,2.7,8.1,2.7,8.3c0,0.2-0.1,0.3-0.2,0.4C2.4,8.8,2.3,8.8,2.2,8.8C2,8.8,1.9,8.8,1.8,8.7z" class="st0"/><path d="M3,3.3C2.9,3.2,2.8,3.1,2.8,2.9c0-0.1,0-0.3,0.1-0.4c0.1-0.1,0.2-0.2,0.4-0.2c0.1,0,0.3,0.1,0.4,0.2	c0.1,0.1,0.2,0.2,0.2,0.4c0,0.2-0.1,0.3-0.2,0.4C3.6,3.4,3.5,3.5,3.3,3.5C3.2,3.5,3.1,3.4,3,3.3z" class="st0"/><path d="M3.6,4.5C3.5,4.4,3.5,4.3,3.5,4.1c0-0.1,0-0.3,0.1-0.4C3.7,3.7,3.9,3.6,4,3.6c0.1,0,0.3,0.1,0.4,0.2	C4.5,3.9,4.5,4,4.5,4.1c0,0.2-0.1,0.3-0.2,0.4C4.3,4.6,4.2,4.7,4,4.7C3.9,4.7,3.7,4.6,3.6,4.5z" class="st0"/><path d="M4.9,6.9C4.8,6.8,4.7,6.6,4.7,6.5c0-0.1,0-0.3,0.1-0.4C5,6,5.1,6,5.3,6C5.4,6,5.5,6,5.6,6.1	c0.1,0.1,0.2,0.2,0.2,0.4c0,0.2-0.1,0.3-0.2,0.4C5.5,7,5.4,7,5.3,7C5.1,7,5,7,4.9,6.9z" class="st0"/><path d="M6,2.3C5.9,2.2,5.9,2,5.9,1.9c0-0.1,0-0.3,0.1-0.4c0.1-0.1,0.2-0.2,0.4-0.2c0.1,0,0.3,0.1,0.4,0.2	c0.1,0.1,0.2,0.2,0.2,0.4c0,0.2-0.1,0.3-0.2,0.4C6.7,2.4,6.6,2.4,6.4,2.4C6.3,2.4,6.1,2.4,6,2.3z" class="st0"/><path d="M6,3.3C5.9,3.2,5.9,3.1,5.9,3c0-0.1,0-0.3,0.1-0.4c0.1-0.1,0.2-0.2,0.4-0.2c0.1,0,0.3,0.1,0.4,0.2	C6.9,2.7,6.9,2.8,6.9,3c0,0.2-0.1,0.3-0.2,0.4C6.7,3.4,6.6,3.5,6.4,3.5C6.3,3.5,6.1,3.4,6,3.3z" class="st0"/><path d="M6,4.4C5.9,4.3,5.9,4.2,5.9,4c0-0.1,0-0.3,0.1-0.4c0.1-0.1,0.2-0.2,0.4-0.2c0.1,0,0.3,0.1,0.4,0.2	C6.9,3.8,6.9,3.9,6.9,4c0,0.2-0.1,0.3-0.2,0.4C6.7,4.5,6.6,4.5,6.4,4.5C6.3,4.5,6.1,4.5,6,4.4z" class="st0"/><path d="M6,5.5C5.9,5.4,5.9,5.2,5.9,5.1c0-0.1,0-0.3,0.1-0.4c0.1-0.1,0.2-0.2,0.4-0.2c0.1,0,0.3,0.1,0.4,0.2	c0.1,0.1,0.2,0.2,0.2,0.4c0,0.2-0.1,0.3-0.2,0.4C6.7,5.6,6.6,5.6,6.4,5.6C6.3,5.6,6.1,5.6,6,5.5z" class="st0"/><path d="M6,6.5C5.9,6.4,5.9,6.3,5.9,6.1c0-0.1,0-0.3,0.1-0.4c0.1-0.1,0.2-0.2,0.4-0.2c0.1,0,0.3,0.1,0.4,0.2	C6.9,5.9,6.9,6,6.9,6.1c0,0.2-0.1,0.3-0.2,0.4C6.7,6.6,6.6,6.7,6.4,6.7C6.3,6.7,6.1,6.6,6,6.5z" class="st0"/><path d="M6,7.6C5.9,7.5,5.9,7.4,5.9,7.2c0-0.1,0-0.3,0.1-0.4c0.1-0.1,0.2-0.2,0.4-0.2c0.1,0,0.3,0.1,0.4,0.2	c0.1,0.1,0.2,0.2,0.2,0.4c0,0.2-0.1,0.3-0.2,0.4C6.7,7.7,6.6,7.7,6.4,7.7C6.3,7.7,6.1,7.7,6,7.6z" class="st0"/><path d="M6,8.7C5.9,8.6,5.9,8.4,5.9,8.3c0-0.1,0-0.3,0.1-0.4c0.1-0.1,0.2-0.2,0.4-0.2c0.1,0,0.3,0.1,0.4,0.2	C6.9,8,6.9,8.1,6.9,8.3c0,0.2-0.1,0.3-0.2,0.4C6.7,8.8,6.6,8.8,6.4,8.8C6.3,8.8,6.1,8.8,6,8.7z" class="st0"/><path d="M8.2,5.5C8.1,5.4,8,5.2,8,5.1c0-0.1,0-0.3,0.1-0.4c0.1-0.1,0.2-0.2,0.4-0.2c0.1,0,0.3,0.1,0.4,0.2	C9,4.8,9.1,4.9,9.1,5.1c0,0.2-0.1,0.3-0.2,0.4C8.8,5.6,8.7,5.6,8.5,5.6C8.4,5.6,8.3,5.6,8.2,5.5z M8.2,6.5C8.1,6.4,8,6.3,8,6.1	c0-0.1,0-0.3,0.1-0.4c0.1-0.1,0.2-0.2,0.4-0.2c0.1,0,0.3,0.1,0.4,0.2C9,5.9,9.1,6,9.1,6.1c0,0.2-0.1,0.3-0.2,0.4	C8.8,6.6,8.7,6.7,8.5,6.7C8.4,6.7,8.3,6.6,8.2,6.5z M8.2,7.6C8.1,7.5,8,7.4,8,7.2c0-0.1,0-0.3,0.1-0.4c0.1-0.1,0.2-0.2,0.4-0.2	c0.1,0,0.3,0.1,0.4,0.2C9,6.9,9.1,7.1,9.1,7.2c0,0.2-0.1,0.3-0.2,0.4C8.8,7.7,8.7,7.7,8.5,7.7C8.4,7.7,8.3,7.7,8.2,7.6z M9.2,8.7	C9.1,8.6,9.1,8.4,9.1,8.3c0-0.1,0-0.3,0.1-0.4c0.1-0.1,0.2-0.2,0.4-0.2c0.1,0,0.3,0.1,0.4,0.2c0.1,0.1,0.2,0.2,0.2,0.4	c0,0.2-0.1,0.3-0.2,0.4C9.9,8.8,9.7,8.8,9.6,8.8C9.4,8.8,9.3,8.8,9.2,8.7z M10.3,8.7c-0.1-0.1-0.1-0.2-0.1-0.4c0-0.1,0-0.3,0.1-0.4	c0.1-0.1,0.2-0.2,0.4-0.2c0.1,0,0.3,0.1,0.4,0.2c0.1,0.1,0.2,0.2,0.2,0.4c0,0.2-0.1,0.3-0.2,0.4c-0.1,0.1-0.2,0.1-0.4,0.1	C10.5,8.8,10.4,8.8,10.3,8.7z M11.3,5.5c-0.1-0.1-0.1-0.2-0.1-0.4c0-0.1,0-0.3,0.1-0.4c0.1-0.1,0.2-0.2,0.4-0.2	c0.1,0,0.3,0.1,0.4,0.2c0.1,0.1,0.2,0.2,0.2,0.4c0,0.2-0.1,0.3-0.2,0.4c-0.1,0.1-0.2,0.1-0.4,0.1C11.6,5.6,11.4,5.6,11.3,5.5z M11.3,6.5c-0.1-0.1-0.1-0.2-0.1-0.4c0-0.1,0-0.3,0.1-0.4c0.1-0.1,0.2-0.2,0.4-0.2c0.1,0,0.3,0.1,0.4,0.2c0.1,0.1,0.2,0.2,0.2,0.4	c0,0.2-0.1,0.3-0.2,0.4c-0.1,0.1-0.2,0.1-0.4,0.1C11.6,6.7,11.4,6.6,11.3,6.5z M11.3,7.6c-0.1-0.1-0.1-0.2-0.1-0.4	c0-0.1,0-0.3,0.1-0.4c0.1-0.1,0.2-0.2,0.4-0.2c0.1,0,0.3,0.1,0.4,0.2c0.1,0.1,0.2,0.2,0.2,0.4c0,0.2-0.1,0.3-0.2,0.4	c-0.1,0.1-0.2,0.1-0.4,0.1C11.6,7.7,11.4,7.7,11.3,7.6z M11.3,8.7c-0.1-0.1-0.1-0.2-0.1-0.4c0-0.1,0-0.3,0.1-0.4	c0.1-0.1,0.2-0.2,0.4-0.2c0.1,0,0.3,0.1,0.4,0.2c0.1,0.1,0.2,0.2,0.2,0.4c0,0.2-0.1,0.3-0.2,0.4c-0.1,0.1-0.2,0.1-0.4,0.1	C11.6,8.8,11.4,8.8,11.3,8.7z" class="st0"/><path d="M13.5,6.5c-0.1-0.1-0.1-0.2-0.1-0.4c0-0.1,0-0.3,0.1-0.4c0.1-0.1,0.2-0.2,0.4-0.2c0.1,0,0.3,0.1,0.4,0.2	c0.1,0.1,0.2,0.2,0.2,0.4c0,0.2-0.1,0.3-0.2,0.4c-0.1,0.1-0.2,0.1-0.4,0.1C13.7,6.7,13.6,6.6,13.5,6.5z" class="st0"/><path d="M13.5,7.6c-0.1-0.1-0.1-0.2-0.1-0.4c0-0.1,0-0.3,0.1-0.4c0.1-0.1,0.2-0.2,0.4-0.2c0.1,0,0.3,0.1,0.4,0.2	c0.1,0.1,0.2,0.2,0.2,0.4c0,0.2-0.1,0.3-0.2,0.4c-0.1,0.1-0.2,0.1-0.4,0.1C13.7,7.7,13.6,7.7,13.5,7.6z" class="st0"/><path d="M14.3,5.4c-0.1-0.1-0.1-0.2-0.1-0.4c0-0.1,0-0.3,0.1-0.4c0.1-0.1,0.2-0.2,0.4-0.2c0.1,0,0.3,0.1,0.4,0.2	c0.1,0.1,0.2,0.2,0.2,0.4c0,0.2-0.1,0.3-0.2,0.4c-0.1,0.1-0.2,0.1-0.4,0.1C14.6,5.5,14.4,5.5,14.3,5.4z" class="st0"/><path d="M14.5,6.5c-0.1-0.1-0.1-0.2-0.1-0.4c0-0.1,0-0.3,0.1-0.4c0.1-0.1,0.2-0.2,0.4-0.2c0.1,0,0.3,0.1,0.4,0.2	c0.1,0.1,0.2,0.2,0.2,0.4c0,0.2-0.1,0.3-0.2,0.4c-0.1,0.1-0.2,0.1-0.4,0.1C14.8,6.7,14.6,6.6,14.5,6.5z" class="st0"/><path d="M14.5,8.7c-0.1-0.1-0.1-0.2-0.1-0.4c0-0.1,0-0.3,0.1-0.4c0.1-0.1,0.2-0.2,0.4-0.2c0.1,0,0.3,0.1,0.4,0.2	c0.1,0.1,0.2,0.2,0.2,0.4c0,0.2-0.1,0.3-0.2,0.4c-0.1,0.1-0.2,0.1-0.4,0.1C14.8,8.8,14.6,8.8,14.5,8.7z" class="st0"/><path d="M15.8,5.4c-0.1-0.1-0.1-0.2-0.1-0.4c0-0.1,0-0.3,0.1-0.4c0.1-0.1,0.2-0.2,0.4-0.2c0.1,0,0.3,0.1,0.4,0.2	c0.1,0.1,0.2,0.2,0.2,0.4c0,0.2-0.1,0.3-0.2,0.4c-0.1,0.1-0.2,0.1-0.4,0.1C16.1,5.5,15.9,5.5,15.8,5.4z" class="st0"/><path d="M15.6,6.5c-0.1-0.1-0.1-0.2-0.1-0.4c0-0.1,0-0.3,0.1-0.4c0.1-0.1,0.2-0.2,0.4-0.2c0.1,0,0.3,0.1,0.4,0.2	c0.1,0.1,0.2,0.2,0.2,0.4c0,0.2-0.1,0.3-0.2,0.4c-0.1,0.1-0.2,0.1-0.4,0.1C15.8,6.7,15.7,6.6,15.6,6.5z" class="st0"/><path d="M15.6,8.7c-0.1-0.1-0.1-0.2-0.1-0.4c0-0.1,0-0.3,0.1-0.4c0.1-0.1,0.2-0.2,0.4-0.2c0.1,0,0.3,0.1,0.4,0.2	c0.1,0.1,0.2,0.2,0.2,0.4c0,0.2-0.1,0.3-0.2,0.4c-0.1,0.1-0.2,0.1-0.4,0.1C15.8,8.8,15.7,8.8,15.6,8.7z" class="st0"/><path d="M16.7,6.5c-0.1-0.1-0.1-0.2-0.1-0.4c0-0.1,0-0.3,0.1-0.4c0.1-0.1,0.2-0.2,0.4-0.2c0.1,0,0.3,0.1,0.4,0.2	c0.1,0.1,0.2,0.2,0.2,0.4c0,0.2-0.1,0.3-0.2,0.4c-0.1,0.1-0.2,0.1-0.4,0.1C16.9,6.7,16.8,6.6,16.7,6.5z" class="st0"/><path d="M16.7,8.7c-0.1-0.1-0.1-0.2-0.1-0.4c0-0.1,0-0.3,0.1-0.4c0.1-0.1,0.2-0.2,0.4-0.2c0.1,0,0.3,0.1,0.4,0.2	c0.1,0.1,0.2,0.2,0.2,0.4c0,0.2-0.1,0.3-0.2,0.4c-0.1,0.1-0.2,0.1-0.4,0.1C16.9,8.8,16.8,8.8,16.7,8.7z" class="st0"/><path d="M18.8,8.7c-0.1-0.1-0.1-0.2-0.1-0.4c0-0.1,0-0.3,0.1-0.4c0.1-0.1,0.2-0.2,0.4-0.2c0.1,0,0.3,0.1,0.4,0.2	c0.1,0.1,0.2,0.2,0.2,0.4c0,0.2-0.1,0.3-0.2,0.4c-0.1,0.1-0.2,0.1-0.4,0.1C19,8.8,18.9,8.8,18.8,8.7z M19.8,5.5	c-0.1-0.1-0.1-0.2-0.1-0.4c0-0.1,0-0.3,0.1-0.4c0.1-0.1,0.2-0.2,0.4-0.2c0.1,0,0.3,0.1,0.4,0.2c0.1,0.1,0.2,0.2,0.2,0.4	c0,0.2-0.1,0.3-0.2,0.4c-0.1,0.1-0.2,0.1-0.4,0.1C20.1,5.6,19.9,5.6,19.8,5.5z M19.8,6.5c-0.1-0.1-0.1-0.2-0.1-0.4	c0-0.1,0-0.3,0.1-0.4c0.1-0.1,0.2-0.2,0.4-0.2c0.1,0,0.3,0.1,0.4,0.2c0.1,0.1,0.2,0.2,0.2,0.4c0,0.2-0.1,0.3-0.2,0.4	c-0.1,0.1-0.2,0.1-0.4,0.1C20.1,6.7,19.9,6.6,19.8,6.5z M19.8,8.7c-0.1-0.1-0.1-0.2-0.1-0.4c0-0.1,0-0.3,0.1-0.4	c0.1-0.1,0.2-0.2,0.4-0.2c0.1,0,0.3,0.1,0.4,0.2c0.1,0.1,0.2,0.2,0.2,0.4c0,0.2-0.1,0.3-0.2,0.4c-0.1,0.1-0.2,0.1-0.4,0.1	C20.1,8.8,19.9,8.8,19.8,8.7z M20.9,5.5c-0.1-0.1-0.1-0.2-0.1-0.4c0-0.1,0-0.3,0.1-0.4c0.1-0.1,0.2-0.2,0.4-0.2	c0.1,0,0.3,0.1,0.4,0.2c0.1,0.1,0.2,0.2,0.2,0.4c0,0.2-0.1,0.3-0.2,0.4c-0.1,0.1-0.2,0.1-0.4,0.1C21.1,5.6,21,5.6,20.9,5.5z M20.9,7.6c-0.1-0.1-0.1-0.2-0.1-0.4c0-0.1,0-0.3,0.1-0.4c0.1-0.1,0.2-0.2,0.4-0.2c0.1,0,0.3,0.1,0.4,0.2c0.1,0.1,0.2,0.2,0.2,0.4	c0,0.2-0.1,0.3-0.2,0.4c-0.1,0.1-0.2,0.1-0.4,0.1C21.1,7.7,21,7.7,20.9,7.6z M20.9,8.7c-0.1-0.1-0.1-0.2-0.1-0.4	c0-0.1,0-0.3,0.1-0.4c0.1-0.1,0.2-0.2,0.4-0.2c0.1,0,0.3,0.1,0.4,0.2c0.1,0.1,0.2,0.2,0.2,0.4c0,0.2-0.1,0.3-0.2,0.4	c-0.1,0.1-0.2,0.1-0.4,0.1C21.1,8.8,21,8.8,20.9,8.7z M22,5.5c-0.1-0.1-0.2-0.2-0.2-0.4c0-0.1,0.1-0.3,0.2-0.4	c0.1-0.1,0.2-0.2,0.4-0.2c0.1,0,0.3,0.1,0.4,0.2c0.1,0.1,0.2,0.2,0.2,0.4c0,0.2-0.1,0.3-0.2,0.4c-0.1,0.1-0.2,0.1-0.4,0.1	C22.2,5.6,22.1,5.6,22,5.5z" class="st0"/><path d="M24.1,5.5c-0.1-0.1-0.1-0.2-0.1-0.4c0-0.1,0-0.3,0.1-0.4c0.1-0.1,0.2-0.2,0.4-0.2c0.1,0,0.3,0.1,0.4,0.2	C24.9,4.8,25,4.9,25,5.1c0,0.2-0.1,0.3-0.2,0.4c-0.1,0.1-0.2,0.1-0.4,0.1C24.3,5.6,24.2,5.6,24.1,5.5z M25.2,3.3	C25.1,3.2,25,3.1,25,3c0-0.1,0-0.3,0.1-0.4c0.1-0.1,0.2-0.2,0.4-0.2c0.1,0,0.3,0.1,0.4,0.2C26,2.7,26.1,2.8,26.1,3	c0,0.2-0.1,0.3-0.2,0.4c-0.1,0.1-0.2,0.1-0.4,0.1C25.4,3.5,25.3,3.4,25.2,3.3z M25.2,4.4C25.1,4.3,25,4.2,25,4c0-0.1,0-0.3,0.1-0.4	c0.1-0.1,0.2-0.2,0.4-0.2c0.1,0,0.3,0.1,0.4,0.2C26,3.8,26.1,3.9,26.1,4c0,0.2-0.1,0.3-0.2,0.4c-0.1,0.1-0.2,0.1-0.4,0.1	C25.4,4.5,25.3,4.5,25.2,4.4z M25.2,5.5C25.1,5.4,25,5.2,25,5.1c0-0.1,0-0.3,0.1-0.4c0.1-0.1,0.2-0.2,0.4-0.2c0.1,0,0.3,0.1,0.4,0.2	c0.1,0.1,0.2,0.2,0.2,0.4c0,0.2-0.1,0.3-0.2,0.4c-0.1,0.1-0.2,0.1-0.4,0.1C25.4,5.6,25.3,5.6,25.2,5.5z M25.2,6.5	C25.1,6.4,25,6.3,25,6.1c0-0.1,0-0.3,0.1-0.4c0.1-0.1,0.2-0.2,0.4-0.2c0.1,0,0.3,0.1,0.4,0.2C26,5.9,26.1,6,26.1,6.1	c0,0.2-0.1,0.3-0.2,0.4c-0.1,0.1-0.2,0.1-0.4,0.1C25.4,6.7,25.3,6.6,25.2,6.5z M25.2,7.6C25.1,7.5,25,7.4,25,7.2	c0-0.1,0-0.3,0.1-0.4c0.1-0.1,0.2-0.2,0.4-0.2c0.1,0,0.3,0.1,0.4,0.2c0.1,0.1,0.2,0.2,0.2,0.4c0,0.2-0.1,0.3-0.2,0.4	c-0.1,0.1-0.2,0.1-0.4,0.1C25.4,7.7,25.3,7.7,25.2,7.6z M26.2,5.5c-0.1-0.1-0.1-0.2-0.1-0.4c0-0.1,0-0.3,0.1-0.4	c0.1-0.1,0.2-0.2,0.4-0.2c0.1,0,0.3,0.1,0.4,0.2c0.1,0.1,0.2,0.2,0.2,0.4c0,0.2-0.1,0.3-0.2,0.4c-0.1,0.1-0.2,0.1-0.4,0.1	C26.4,5.6,26.3,5.6,26.2,5.5z M26.2,8.7c-0.1-0.1-0.1-0.2-0.1-0.4c0-0.1,0-0.3,0.1-0.4c0.1-0.1,0.2-0.2,0.4-0.2	c0.1,0,0.3,0.1,0.4,0.2c0.1,0.1,0.2,0.2,0.2,0.4c0,0.2-0.1,0.3-0.2,0.4c-0.1,0.1-0.2,0.1-0.4,0.1C26.4,8.8,26.3,8.8,26.2,8.7z M27.3,5.5c-0.1-0.1-0.1-0.2-0.1-0.4c0-0.1,0-0.3,0.1-0.4c0.1-0.1,0.2-0.2,0.4-0.2c0.1,0,0.3,0.1,0.4,0.2c0.1,0.1,0.2,0.2,0.2,0.4	c0,0.2-0.1,0.3-0.2,0.4c-0.1,0.1-0.2,0.1-0.4,0.1C27.5,5.6,27.4,5.6,27.3,5.5z M27.3,8.7c-0.1-0.1-0.1-0.2-0.1-0.4	c0-0.1,0-0.3,0.1-0.4c0.1-0.1,0.2-0.2,0.4-0.2c0.1,0,0.3,0.1,0.4,0.2c0.1,0.1,0.2,0.2,0.2,0.4c0,0.2-0.1,0.3-0.2,0.4	c-0.1,0.1-0.2,0.1-0.4,0.1C27.5,8.8,27.4,8.8,27.3,8.7z" class="st0"/><path d="M29.4,5.5c-0.1-0.1-0.1-0.2-0.1-0.4c0-0.1,0-0.3,0.1-0.4c0.1-0.1,0.2-0.2,0.4-0.2c0.1,0,0.3,0.1,0.4,0.2	c0.1,0.1,0.2,0.2,0.2,0.4c0,0.2-0.1,0.3-0.2,0.4c-0.1,0.1-0.2,0.1-0.4,0.1C29.6,5.6,29.5,5.6,29.4,5.5z M29.4,6.5	c-0.1-0.1-0.1-0.2-0.1-0.4c0-0.1,0-0.3,0.1-0.4c0.1-0.1,0.2-0.2,0.4-0.2c0.1,0,0.3,0.1,0.4,0.2c0.1,0.1,0.2,0.2,0.2,0.4	c0,0.2-0.1,0.3-0.2,0.4c-0.1,0.1-0.2,0.1-0.4,0.1C29.6,6.7,29.5,6.6,29.4,6.5z M29.4,7.6c-0.1-0.1-0.1-0.2-0.1-0.4	c0-0.1,0-0.3,0.1-0.4c0.1-0.1,0.2-0.2,0.4-0.2c0.1,0,0.3,0.1,0.4,0.2c0.1,0.1,0.2,0.2,0.2,0.4c0,0.2-0.1,0.3-0.2,0.4	c-0.1,0.1-0.2,0.1-0.4,0.1C29.6,7.7,29.5,7.7,29.4,7.6z M29.4,8.7c-0.1-0.1-0.1-0.2-0.1-0.4c0-0.1,0-0.3,0.1-0.4	c0.1-0.1,0.2-0.2,0.4-0.2c0.1,0,0.3,0.1,0.4,0.2c0.1,0.1,0.2,0.2,0.2,0.4c0,0.2-0.1,0.3-0.2,0.4c-0.1,0.1-0.2,0.1-0.4,0.1	C29.6,8.8,29.5,8.8,29.4,8.7z M30.5,5.5c-0.1-0.1-0.1-0.2-0.1-0.4c0-0.1,0-0.3,0.1-0.4c0.1-0.1,0.2-0.2,0.4-0.2	c0.1,0,0.3,0.1,0.4,0.2c0.1,0.1,0.2,0.2,0.2,0.4c0,0.2-0.1,0.3-0.2,0.4c-0.1,0.1-0.2,0.1-0.4,0.1C30.7,5.6,30.6,5.6,30.5,5.5z M31.5,5.5c-0.1-0.1-0.1-0.2-0.1-0.4c0-0.1,0-0.3,0.1-0.4c0.1-0.1,0.2-0.2,0.4-0.2c0.1,0,0.3,0.1,0.4,0.2c0.1,0.1,0.2,0.2,0.2,0.4	c0,0.2-0.1,0.3-0.2,0.4c-0.1,0.1-0.2,0.1-0.4,0.1C31.8,5.6,31.6,5.6,31.5,5.5z M32.6,6.5c-0.1-0.1-0.1-0.2-0.1-0.4	c0-0.1,0-0.3,0.1-0.4c0.1-0.1,0.2-0.2,0.4-0.2c0.1,0,0.3,0.1,0.4,0.2c0.1,0.1,0.2,0.2,0.2,0.4c0,0.2-0.1,0.3-0.2,0.4	c-0.1,0.1-0.2,0.1-0.4,0.1C32.8,6.7,32.7,6.6,32.6,6.5z" class="st0"/><path d="M34.7,6.5c-0.1-0.1-0.1-0.2-0.1-0.4c0-0.1,0-0.3,0.1-0.4c0.1-0.1,0.2-0.2,0.4-0.2c0.1,0,0.3,0.1,0.4,0.2	c0.1,0.1,0.2,0.2,0.2,0.4c0,0.2-0.1,0.3-0.2,0.4c-0.1,0.1-0.2,0.1-0.4,0.1C34.9,6.7,34.8,6.6,34.7,6.5z M34.7,7.6	c-0.1-0.1-0.1-0.2-0.1-0.4c0-0.1,0-0.3,0.1-0.4c0.1-0.1,0.2-0.2,0.4-0.2c0.1,0,0.3,0.1,0.4,0.2c0.1,0.1,0.2,0.2,0.2,0.4	c0,0.2-0.1,0.3-0.2,0.4c-0.1,0.1-0.2,0.1-0.4,0.1C34.9,7.7,34.8,7.7,34.7,7.6z M35.8,5.5c-0.1-0.1-0.1-0.2-0.1-0.4	c0-0.1,0-0.3,0.1-0.4c0.1-0.1,0.2-0.2,0.4-0.2c0.1,0,0.3,0.1,0.4,0.2c0.1,0.1,0.2,0.2,0.2,0.4c0,0.2-0.1,0.3-0.2,0.4	c-0.1,0.1-0.2,0.1-0.4,0.1C36,5.6,35.9,5.6,35.8,5.5z M35.8,8.7c-0.1-0.1-0.1-0.2-0.1-0.4c0-0.1,0-0.3,0.1-0.4	c0.1-0.1,0.2-0.2,0.4-0.2c0.1,0,0.3,0.1,0.4,0.2c0.1,0.1,0.2,0.2,0.2,0.4c0,0.2-0.1,0.3-0.2,0.4c-0.1,0.1-0.2,0.1-0.4,0.1	C36,8.8,35.9,8.8,35.8,8.7z M36.8,5.5c-0.1-0.1-0.1-0.2-0.1-0.4c0-0.1,0-0.3,0.1-0.4c0.1-0.1,0.2-0.2,0.4-0.2c0.1,0,0.3,0.1,0.4,0.2	c0.1,0.1,0.2,0.2,0.2,0.4c0,0.2-0.1,0.3-0.2,0.4c-0.1,0.1-0.2,0.1-0.4,0.1C37.1,5.6,36.9,5.6,36.8,5.5z M36.8,8.7	c-0.1-0.1-0.1-0.2-0.1-0.4c0-0.1,0-0.3,0.1-0.4c0.1-0.1,0.2-0.2,0.4-0.2c0.1,0,0.3,0.1,0.4,0.2c0.1,0.1,0.2,0.2,0.2,0.4	c0,0.2-0.1,0.3-0.2,0.4c-0.1,0.1-0.2,0.1-0.4,0.1C37.1,8.8,36.9,8.8,36.8,8.7z M37.9,6.5c-0.1-0.1-0.1-0.2-0.1-0.4	c0-0.1,0-0.3,0.1-0.4c0.1-0.1,0.2-0.2,0.4-0.2c0.1,0,0.3,0.1,0.4,0.2c0.1,0.1,0.2,0.2,0.2,0.4c0,0.2-0.1,0.3-0.2,0.4	c-0.1,0.1-0.2,0.1-0.4,0.1C38.1,6.7,38,6.6,37.9,6.5z M37.9,7.6c-0.1-0.1-0.1-0.2-0.1-0.4c0-0.1,0-0.3,0.1-0.4	c0.1-0.1,0.2-0.2,0.4-0.2c0.1,0,0.3,0.1,0.4,0.2c0.1,0.1,0.2,0.2,0.2,0.4c0,0.2-0.1,0.3-0.2,0.4c-0.1,0.1-0.2,0.1-0.4,0.1	C38.1,7.7,38,7.7,37.9,7.6z" class="st0"/><path d="M42.2,2.3C42.1,2.2,42,2,42,1.9c0-0.1,0-0.3,0.1-0.4c0.1-0.1,0.2-0.2,0.4-0.2c0.1,0,0.3,0.1,0.4,0.2	c0.1,0.1,0.2,0.2,0.2,0.4c0,0.2-0.1,0.3-0.2,0.4c-0.1,0.1-0.2,0.1-0.4,0.1C42.4,2.4,42.3,2.4,42.2,2.3z M43.2,2.3	c-0.1-0.1-0.1-0.2-0.1-0.4c0-0.1,0-0.3,0.1-0.4c0.1-0.1,0.2-0.2,0.4-0.2c0.1,0,0.3,0.1,0.4,0.2c0.1,0.1,0.2,0.2,0.2,0.4	c0,0.2-0.1,0.3-0.2,0.4c-0.1,0.1-0.2,0.1-0.4,0.1C43.4,2.4,43.3,2.4,43.2,2.3z M44.3,2.3c-0.1-0.1-0.1-0.2-0.1-0.4	c0-0.1,0-0.3,0.1-0.4c0.1-0.1,0.2-0.2,0.4-0.2c0.1,0,0.3,0.1,0.4,0.2c0.1,0.1,0.2,0.2,0.2,0.4c0,0.2-0.1,0.3-0.2,0.4	c-0.1,0.1-0.2,0.1-0.4,0.1C44.5,2.4,44.4,2.4,44.3,2.3z M44.3,3.3c-0.1-0.1-0.1-0.2-0.1-0.4c0-0.1,0-0.3,0.1-0.4	c0.1-0.1,0.2-0.2,0.4-0.2c0.1,0,0.3,0.1,0.4,0.2c0.1,0.1,0.2,0.2,0.2,0.4c0,0.2-0.1,0.3-0.2,0.4c-0.1,0.1-0.2,0.1-0.4,0.1	C44.5,3.5,44.4,3.4,44.3,3.3z M44.3,4.4c-0.1-0.1-0.1-0.2-0.1-0.4c0-0.1,0-0.3,0.1-0.4c0.1-0.1,0.2-0.2,0.4-0.2	c0.1,0,0.3,0.1,0.4,0.2c0.1,0.1,0.2,0.2,0.2,0.4c0,0.2-0.1,0.3-0.2,0.4c-0.1,0.1-0.2,0.1-0.4,0.1C44.5,4.5,44.4,4.5,44.3,4.4z M44.3,5.5c-0.1-0.1-0.1-0.2-0.1-0.4c0-0.1,0-0.3,0.1-0.4c0.1-0.1,0.2-0.2,0.4-0.2c0.1,0,0.3,0.1,0.4,0.2c0.1,0.1,0.2,0.2,0.2,0.4	c0,0.2-0.1,0.3-0.2,0.4c-0.1,0.1-0.2,0.1-0.4,0.1C44.5,5.6,44.4,5.6,44.3,5.5z M44.3,6.5c-0.1-0.1-0.1-0.2-0.1-0.4	c0-0.1,0-0.3,0.1-0.4c0.1-0.1,0.2-0.2,0.4-0.2c0.1,0,0.3,0.1,0.4,0.2c0.1,0.1,0.2,0.2,0.2,0.4c0,0.2-0.1,0.3-0.2,0.4	c-0.1,0.1-0.2,0.1-0.4,0.1C44.5,6.7,44.4,6.6,44.3,6.5z M44.3,7.6c-0.1-0.1-0.1-0.2-0.1-0.4c0-0.1,0-0.3,0.1-0.4	c0.1-0.1,0.2-0.2,0.4-0.2c0.1,0,0.3,0.1,0.4,0.2c0.1,0.1,0.2,0.2,0.2,0.4c0,0.2-0.1,0.3-0.2,0.4c-0.1,0.1-0.2,0.1-0.4,0.1	C44.5,7.7,44.4,7.7,44.3,7.6z M44.3,8.7c-0.1-0.1-0.1-0.2-0.1-0.4c0-0.1,0-0.3,0.1-0.4c0.1-0.1,0.2-0.2,0.4-0.2	c0.1,0,0.3,0.1,0.4,0.2c0.1,0.1,0.2,0.2,0.2,0.4c0,0.2-0.1,0.3-0.2,0.4c-0.1,0.1-0.2,0.1-0.4,0.1C44.5,8.8,44.4,8.8,44.3,8.7z M45.3,2.3c-0.1-0.1-0.1-0.2-0.1-0.4c0-0.1,0-0.3,0.1-0.4c0.1-0.1,0.2-0.2,0.4-0.2c0.1,0,0.3,0.1,0.4,0.2c0.1,0.1,0.2,0.2,0.2,0.4	c0,0.2-0.1,0.3-0.2,0.4c-0.1,0.1-0.2,0.1-0.4,0.1C45.6,2.4,45.4,2.4,45.3,2.3z M46.4,2.3c-0.1-0.1-0.1-0.2-0.1-0.4	c0-0.1,0-0.3,0.1-0.4c0.1-0.1,0.2-0.2,0.4-0.2c0.1,0,0.3,0.1,0.4,0.2c0.1,0.1,0.2,0.2,0.2,0.4c0,0.2-0.1,0.3-0.2,0.4	c-0.1,0.1-0.2,0.1-0.4,0.1C46.6,2.4,46.5,2.4,46.4,2.3z" class="st0"/><path d="M48.5,5.5c-0.1-0.1-0.1-0.2-0.1-0.4c0-0.1,0-0.3,0.1-0.4c0.1-0.1,0.2-0.2,0.4-0.2c0.1,0,0.3,0.1,0.4,0.2	c0.1,0.1,0.2,0.2,0.2,0.4c0,0.2-0.1,0.3-0.2,0.4c-0.1,0.1-0.2,0.1-0.4,0.1C48.8,5.6,48.6,5.6,48.5,5.5z M48.5,6.5	c-0.1-0.1-0.1-0.2-0.1-0.4c0-0.1,0-0.3,0.1-0.4c0.1-0.1,0.2-0.2,0.4-0.2c0.1,0,0.3,0.1,0.4,0.2c0.1,0.1,0.2,0.2,0.2,0.4	c0,0.2-0.1,0.3-0.2,0.4c-0.1,0.1-0.2,0.1-0.4,0.1C48.8,6.7,48.6,6.6,48.5,6.5z M48.5,7.6c-0.1-0.1-0.1-0.2-0.1-0.4	c0-0.1,0-0.3,0.1-0.4c0.1-0.1,0.2-0.2,0.4-0.2c0.1,0,0.3,0.1,0.4,0.2c0.1,0.1,0.2,0.2,0.2,0.4c0,0.2-0.1,0.3-0.2,0.4	c-0.1,0.1-0.2,0.1-0.4,0.1C48.8,7.7,48.6,7.7,48.5,7.6z M49.6,8.7c-0.1-0.1-0.1-0.2-0.1-0.4c0-0.1,0-0.3,0.1-0.4	c0.1-0.1,0.2-0.2,0.4-0.2c0.1,0,0.3,0.1,0.4,0.2c0.1,0.1,0.2,0.2,0.2,0.4c0,0.2-0.1,0.3-0.2,0.4c-0.1,0.1-0.2,0.1-0.4,0.1	C49.8,8.8,49.7,8.8,49.6,8.7z M50.7,8.7c-0.1-0.1-0.1-0.2-0.1-0.4c0-0.1,0-0.3,0.1-0.4c0.1-0.1,0.2-0.2,0.4-0.2	c0.1,0,0.3,0.1,0.4,0.2c0.1,0.1,0.2,0.2,0.2,0.4c0,0.2-0.1,0.3-0.2,0.4c-0.1,0.1-0.2,0.1-0.4,0.1C50.9,8.8,50.8,8.8,50.7,8.7z M51.7,5.5c-0.1-0.1-0.1-0.2-0.1-0.4c0-0.1,0-0.3,0.1-0.4c0.1-0.1,0.2-0.2,0.4-0.2c0.1,0,0.3,0.1,0.4,0.2c0.1,0.1,0.2,0.2,0.2,0.4	c0,0.2-0.1,0.3-0.2,0.4c-0.1,0.1-0.2,0.1-0.4,0.1C51.9,5.6,51.8,5.6,51.7,5.5z M51.7,6.5c-0.1-0.1-0.1-0.2-0.1-0.4	c0-0.1,0-0.3,0.1-0.4c0.1-0.1,0.2-0.2,0.4-0.2c0.1,0,0.3,0.1,0.4,0.2c0.1,0.1,0.2,0.2,0.2,0.4c0,0.2-0.1,0.3-0.2,0.4	c-0.1,0.1-0.2,0.1-0.4,0.1C51.9,6.7,51.8,6.6,51.7,6.5z M51.7,7.6c-0.1-0.1-0.1-0.2-0.1-0.4c0-0.1,0-0.3,0.1-0.4	c0.1-0.1,0.2-0.2,0.4-0.2c0.1,0,0.3,0.1,0.4,0.2c0.1,0.1,0.2,0.2,0.2,0.4c0,0.2-0.1,0.3-0.2,0.4c-0.1,0.1-0.2,0.1-0.4,0.1	C51.9,7.7,51.8,7.7,51.7,7.6z M51.7,8.7c-0.1-0.1-0.1-0.2-0.1-0.4c0-0.1,0-0.3,0.1-0.4c0.1-0.1,0.2-0.2,0.4-0.2	c0.1,0,0.3,0.1,0.4,0.2c0.1,0.1,0.2,0.2,0.2,0.4c0,0.2-0.1,0.3-0.2,0.4c-0.1,0.1-0.2,0.1-0.4,0.1C51.9,8.8,51.8,8.8,51.7,8.7z" class="st0"/><path d="M53.8,5.5c-0.1-0.1-0.1-0.2-0.1-0.4c0-0.1,0-0.3,0.1-0.4c0.1-0.1,0.2-0.2,0.4-0.2c0.1,0,0.3,0.1,0.4,0.2	c0.1,0.1,0.2,0.2,0.2,0.4c0,0.2-0.1,0.3-0.2,0.4c-0.1,0.1-0.2,0.1-0.4,0.1C54.1,5.6,53.9,5.6,53.8,5.5z" class="st0"/><path d="M53.8,6.5c-0.1-0.1-0.1-0.2-0.1-0.4c0-0.1,0-0.3,0.1-0.4c0.1-0.1,0.2-0.2,0.4-0.2c0.1,0,0.3,0.1,0.4,0.2	c0.1,0.1,0.2,0.2,0.2,0.4c0,0.2-0.1,0.3-0.2,0.4c-0.1,0.1-0.2,0.1-0.4,0.1C54.1,6.7,53.9,6.6,53.8,6.5z" class="st0"/><path d="M53.8,7.6c-0.1-0.1-0.1-0.2-0.1-0.4c0-0.1,0-0.3,0.1-0.4c0.1-0.1,0.2-0.2,0.4-0.2c0.1,0,0.3,0.1,0.4,0.2	c0.1,0.1,0.2,0.2,0.2,0.4c0,0.2-0.1,0.3-0.2,0.4c-0.1,0.1-0.2,0.1-0.4,0.1C54.1,7.7,53.9,7.7,53.8,7.6z" class="st0"/><path d="M53.8,8.7c-0.1-0.1-0.1-0.2-0.1-0.4c0-0.1,0-0.3,0.1-0.4c0.1-0.1,0.2-0.2,0.4-0.2c0.1,0,0.3,0.1,0.4,0.2	c0.1,0.1,0.2,0.2,0.2,0.4c0,0.2-0.1,0.3-0.2,0.4c-0.1,0.1-0.2,0.1-0.4,0.1C54.1,8.8,53.9,8.8,53.8,8.7z" class="st0"/><path d="M54.9,5.5c-0.1-0.1-0.1-0.2-0.1-0.4c0-0.1,0-0.3,0.1-0.4c0.1-0.1,0.2-0.2,0.4-0.2c0.1,0,0.3,0.1,0.4,0.2	c0.1,0.1,0.2,0.2,0.2,0.4c0,0.2-0.1,0.3-0.2,0.4c-0.1,0.1-0.2,0.1-0.4,0.1C55.1,5.6,55,5.6,54.9,5.5z" class="st0"/><path d="M56,5.5c-0.1-0.1-0.1-0.2-0.1-0.4c0-0.1,0-0.3,0.1-0.4c0.1-0.1,0.2-0.2,0.4-0.2c0.1,0,0.3,0.1,0.4,0.2	c0.1,0.1,0.2,0.2,0.2,0.4c0,0.2-0.1,0.3-0.2,0.4c-0.1,0.1-0.2,0.1-0.4,0.1C56.2,5.6,56.1,5.6,56,5.5z" class="st0"/><path d="M57,6.5c-0.1-0.1-0.1-0.2-0.1-0.4c0-0.1,0-0.3,0.1-0.4c0.1-0.1,0.2-0.2,0.4-0.2c0.1,0,0.3,0.1,0.4,0.2	c0.1,0.1,0.2,0.2,0.2,0.4c0,0.2-0.1,0.3-0.2,0.4c-0.1,0.1-0.2,0.1-0.4,0.1C57.3,6.7,57.1,6.6,57,6.5z" class="st0"/><path d="M59.2,5.5C59.1,5.4,59,5.2,59,5.1c0-0.1,0-0.3,0.1-0.4c0.1-0.1,0.2-0.2,0.4-0.2c0.1,0,0.3,0.1,0.4,0.2	c0.1,0.1,0.2,0.2,0.2,0.4c0,0.2-0.1,0.3-0.2,0.4c-0.1,0.1-0.2,0.1-0.4,0.1C59.4,5.6,59.3,5.6,59.2,5.5z M59.2,6.5	C59.1,6.4,59,6.3,59,6.1c0-0.1,0-0.3,0.1-0.4c0.1-0.1,0.2-0.2,0.4-0.2c0.1,0,0.3,0.1,0.4,0.2C60,5.9,60.1,6,60.1,6.1	c0,0.2-0.1,0.3-0.2,0.4c-0.1,0.1-0.2,0.1-0.4,0.1C59.4,6.7,59.3,6.6,59.2,6.5z M59.2,7.6C59.1,7.5,59,7.4,59,7.2	c0-0.1,0-0.3,0.1-0.4c0.1-0.1,0.2-0.2,0.4-0.2c0.1,0,0.3,0.1,0.4,0.2c0.1,0.1,0.2,0.2,0.2,0.4c0,0.2-0.1,0.3-0.2,0.4	c-0.1,0.1-0.2,0.1-0.4,0.1C59.4,7.7,59.3,7.7,59.2,7.6z M59.2,8.7C59.1,8.6,59,8.4,59,8.3c0-0.1,0-0.3,0.1-0.4	c0.1-0.1,0.2-0.2,0.4-0.2c0.1,0,0.3,0.1,0.4,0.2C60,8,60.1,8.1,60.1,8.3c0,0.2-0.1,0.3-0.2,0.4c-0.1,0.1-0.2,0.1-0.4,0.1	C59.4,8.8,59.3,8.8,59.2,8.7z M60.2,5.5c-0.1-0.1-0.1-0.2-0.1-0.4c0-0.1,0-0.3,0.1-0.4c0.1-0.1,0.2-0.2,0.4-0.2	c0.1,0,0.3,0.1,0.4,0.2c0.1,0.1,0.2,0.2,0.2,0.4c0,0.2-0.1,0.3-0.2,0.4c-0.1,0.1-0.2,0.1-0.4,0.1C60.4,5.6,60.3,5.6,60.2,5.5z M61.3,5.5c-0.1-0.1-0.1-0.2-0.1-0.4c0-0.1,0-0.3,0.1-0.4c0.1-0.1,0.2-0.2,0.4-0.2c0.1,0,0.3,0.1,0.4,0.2c0.1,0.1,0.2,0.2,0.2,0.4	c0,0.2-0.1,0.3-0.2,0.4c-0.1,0.1-0.2,0.1-0.4,0.1C61.5,5.6,61.4,5.6,61.3,5.5z M62.3,6.5c-0.1-0.1-0.1-0.2-0.1-0.4	c0-0.1,0-0.3,0.1-0.4c0.1-0.1,0.2-0.2,0.4-0.2c0.1,0,0.3,0.1,0.4,0.2c0.1,0.1,0.2,0.2,0.2,0.4c0,0.2-0.1,0.3-0.2,0.4	c-0.1,0.1-0.2,0.1-0.4,0.1C62.6,6.7,62.4,6.6,62.3,6.5z M62.3,7.6c-0.1-0.1-0.1-0.2-0.1-0.4c0-0.1,0-0.3,0.1-0.4	c0.1-0.1,0.2-0.2,0.4-0.2c0.1,0,0.3,0.1,0.4,0.2c0.1,0.1,0.2,0.2,0.2,0.4c0,0.2-0.1,0.3-0.2,0.4c-0.1,0.1-0.2,0.1-0.4,0.1	C62.6,7.7,62.4,7.7,62.3,7.6z M62.3,8.7c-0.1-0.1-0.1-0.2-0.1-0.4c0-0.1,0-0.3,0.1-0.4c0.1-0.1,0.2-0.2,0.4-0.2	c0.1,0,0.3,0.1,0.4,0.2c0.1,0.1,0.2,0.2,0.2,0.4c0,0.2-0.1,0.3-0.2,0.4c-0.1,0.1-0.2,0.1-0.4,0.1C62.6,8.8,62.4,8.8,62.3,8.7z" class="st0"/><path d="M64.5,6.5c-0.1-0.1-0.1-0.2-0.1-0.4c0-0.1,0-0.3,0.1-0.4c0.1-0.1,0.2-0.2,0.4-0.2c0.1,0,0.3,0.1,0.4,0.2	c0.1,0.1,0.2,0.2,0.2,0.4c0,0.2-0.1,0.3-0.2,0.4c-0.1,0.1-0.2,0.1-0.4,0.1C64.7,6.7,64.6,6.6,64.5,6.5z M64.5,7.6	c-0.1-0.1-0.1-0.2-0.1-0.4c0-0.1,0-0.3,0.1-0.4c0.1-0.1,0.2-0.2,0.4-0.2c0.1,0,0.3,0.1,0.4,0.2c0.1,0.1,0.2,0.2,0.2,0.4	c0,0.2-0.1,0.3-0.2,0.4c-0.1,0.1-0.2,0.1-0.4,0.1C64.7,7.7,64.6,7.7,64.5,7.6z M65.5,5.5c-0.1-0.1-0.1-0.2-0.1-0.4	c0-0.1,0-0.3,0.1-0.4c0.1-0.1,0.2-0.2,0.4-0.2c0.1,0,0.3,0.1,0.4,0.2c0.1,0.1,0.2,0.2,0.2,0.4c0,0.2-0.1,0.3-0.2,0.4	c-0.1,0.1-0.2,0.1-0.4,0.1C65.8,5.6,65.6,5.6,65.5,5.5z M65.5,8.7c-0.1-0.1-0.1-0.2-0.1-0.4c0-0.1,0-0.3,0.1-0.4	c0.1-0.1,0.2-0.2,0.4-0.2c0.1,0,0.3,0.1,0.4,0.2c0.1,0.1,0.2,0.2,0.2,0.4c0,0.2-0.1,0.3-0.2,0.4c-0.1,0.1-0.2,0.1-0.4,0.1	C65.8,8.8,65.6,8.8,65.5,8.7z M66.6,5.5c-0.1-0.1-0.1-0.2-0.1-0.4c0-0.1,0-0.3,0.1-0.4c0.1-0.1,0.2-0.2,0.4-0.2	c0.1,0,0.3,0.1,0.4,0.2c0.1,0.1,0.2,0.2,0.2,0.4c0,0.2-0.1,0.3-0.2,0.4c-0.1,0.1-0.2,0.1-0.4,0.1C66.8,5.6,66.7,5.6,66.6,5.5z M66.6,8.7c-0.1-0.1-0.1-0.2-0.1-0.4c0-0.1,0-0.3,0.1-0.4c0.1-0.1,0.2-0.2,0.4-0.2c0.1,0,0.3,0.1,0.4,0.2c0.1,0.1,0.2,0.2,0.2,0.4	c0,0.2-0.1,0.3-0.2,0.4c-0.1,0.1-0.2,0.1-0.4,0.1C66.8,8.8,66.7,8.8,66.6,8.7z M67.7,6.5c-0.1-0.1-0.1-0.2-0.1-0.4	c0-0.1,0-0.3,0.1-0.4c0.1-0.1,0.2-0.2,0.4-0.2c0.1,0,0.3,0.1,0.4,0.2c0.1,0.1,0.2,0.2,0.2,0.4c0,0.2-0.1,0.3-0.2,0.4	c-0.1,0.1-0.2,0.1-0.4,0.1C67.9,6.7,67.8,6.6,67.7,6.5z M67.7,7.6c-0.1-0.1-0.1-0.2-0.1-0.4c0-0.1,0-0.3,0.1-0.4	c0.1-0.1,0.2-0.2,0.4-0.2c0.1,0,0.3,0.1,0.4,0.2c0.1,0.1,0.2,0.2,0.2,0.4c0,0.2-0.1,0.3-0.2,0.4c-0.1,0.1-0.2,0.1-0.4,0.1	C67.9,7.7,67.8,7.7,67.7,7.6z" class="st0"/><path d="M4.3,5.7C4.2,5.6,4.1,5.4,4.1,5.3c0-0.1,0-0.3,0.1-0.4c0.1-0.1,0.2-0.2,0.4-0.2c0.1,0,0.3,0.1,0.4,0.2	C5.1,5,5.2,5.1,5.2,5.3c0,0.2-0.1,0.3-0.2,0.4C4.9,5.8,4.8,5.8,4.7,5.8C4.5,5.8,4.4,5.8,4.3,5.7z" class="st0"/></svg>